<?xml version="1.0" encoding="UTF-8" standalone="no"?>
<!DOCTYPE svg PUBLIC "-//W3C//DTD SVG 1.1//EN" "http://www.w3.org/Graphics/SVG/1.1/DTD/svg11.dtd">
<svg width="100%" height="100%" viewBox="0 0 1366 768" version="1.1" xmlns="http://www.w3.org/2000/svg" xmlns:xlink="http://www.w3.org/1999/xlink" xml:space="preserve" xmlns:serif="http://www.serif.com/" style="fill-rule:evenodd;clip-rule:evenodd;stroke-linejoin:round;stroke-miterlimit:2;">
    <g transform="matrix(1,0,0,1,-5186.84,-1701.14)">
        <g id="Page-1" serif:id="Page 1" transform="matrix(1,0,0,1,5186.84,1701.14)">
            <rect x="0" y="0" width="1366" height="768" style="fill:none;"/>
            <g id="Layer-1" serif:id="Layer 1">
                <rect x="0" y="0" width="1366" height="768" style="fill:white;"/>
                <g transform="matrix(1,0,0,1,319.911,156.734)">
                    <path d="M0,455L-169.911,455L-169.911,333.266L-169.65,332.8L-169.65,122.2L-217.1,122.2L-217.1,0L-47.911,0.266L-47.45,122.2L-47.45,332.8L0,332.8L0,455Z" style="fill:rgb(30,30,30);fill-rule:nonzero;"/>
                </g>
                <g transform="matrix(1,0,0,1,727.453,489.535)">
                    <path d="M0,-210.6L121.55,-210.6L121.55,-151.45C121.55,-101.177 103.776,-58.277 68.25,-22.75C32.713,12.787 -9.974,30.549 -59.8,30.549L-243.75,30.549L-243.75,122.2L-365.95,122.2L-365.95,-332.8L0,-332.8L0,-210.6L-243.75,-210.6L-243.75,-91.65L-59.8,-91.65C-43.337,-91.65 -29.25,-97.5 -17.551,-109.2C-5.85,-120.9 0,-134.977 0,-151.45L0,-210.6Z" style="fill:rgb(30,30,30);fill-rule:nonzero;"/>
                </g>
                <g transform="matrix(1,0,0,1,1299.45,156.734)">
                    <path d="M0,455L-105.3,323.7M-336.7,455L-487.5,455L-250.25,131.3L-382.2,131.3L-487.5,0L-332.8,0L-239.2,116.35L-154.7,0L0,0L-239.2,323.7L-105.3,323.7L0,455L-154.7,455L-249.6,336.7L-336.7,455Z" style="fill:rgb(30,30,30);fill-rule:nonzero;"/>
                </g>
                <g transform="matrix(1,0,0,1,1049.2,156.734)">
                    <path d="M0,131.3L-131.95,131.3L-237.25,0L-82.55,0L6.5,110.695L11.05,116.35L0,131.3Z" style="fill:rgb(30,30,30);fill-rule:nonzero;"/>
                </g>
                <g transform="matrix(1,0,0,1,1060.25,611.735)">
                    <path d="M0,-131.3L133.9,-131.3L239.2,0L84.5,0L-10.399,-118.3L0,-131.3Z" style="fill:rgb(30,30,30);fill-rule:nonzero;"/>
                </g>
            </g>
            <g id="Layer-2" serif:id="Layer 2">
            </g>
            <g id="Layer-3" serif:id="Layer 3">
            </g>
            <g id="Layer-4" serif:id="Layer 4">
            </g>
        </g>
    </g>
</svg>
