<svg width="31" height="31" viewBox="0 0 31 31" fill="none" xmlns="http://www.w3.org/2000/svg">
<path d="M20.6688 8.21891C19.7396 6.18843 18.4235 4.34532 16.7812 2.79131V8.9039C18.1129 8.82177 19.4152 8.5901 20.6688 8.21891ZM16.7812 14.4062H22.2163C22.1283 12.9833 21.8693 11.5955 21.454 10.267C19.9638 10.7228 18.3985 11.0066 16.7812 11.0951V14.4062ZM16.7812 16.5938V19.9049C18.3985 19.9934 19.9638 20.2772 21.454 20.733C21.8693 19.4045 22.1283 18.0167 22.2163 16.5938H16.7812ZM16.7812 28.2087C18.4235 26.6547 19.7396 24.8116 20.6688 22.7811C19.4152 22.4099 18.1129 22.1783 16.7812 22.0961V28.2087ZM14.5938 8.90387V2.79127C12.9515 4.34532 11.6354 6.18839 10.7062 8.21891C11.9598 8.5901 13.2621 8.82173 14.5938 8.90387ZM9.15874 14.4062H14.5938V11.0951C12.9765 11.0066 11.4112 10.7228 9.92101 10.267C9.50566 11.5955 9.24675 12.9833 9.15874 14.4062ZM9.92101 20.733C11.4112 20.2772 12.9765 19.9934 14.5938 19.9049V16.5938H9.15874C9.24675 18.0167 9.50566 19.4045 9.92101 20.733ZM14.5938 28.2087V22.0961C13.2621 22.1783 11.9598 22.4099 10.7062 22.7811C11.6354 24.8116 12.9515 26.6547 14.5938 28.2087ZM15.6875 0.1875C20.8473 0.1875 25.4109 2.73956 28.1852 6.65026C29.9579 9.14917 31 12.2029 31 15.5C31 18.7971 29.9579 21.8508 28.1852 24.3498C25.4109 28.2604 20.8473 30.8125 15.6875 30.8125C10.5277 30.8125 5.96406 28.2604 3.1898 24.3497C1.41707 21.8508 0.375 18.7971 0.375 15.5C0.375 12.2029 1.41707 9.14917 3.1898 6.65026C5.96406 2.73956 10.5277 0.1875 15.6875 0.1875ZM11.3153 3.12107C9.45405 3.7777 7.76448 4.84824 6.37029 6.25446C7.09813 6.71351 7.859 7.11796 8.64666 7.46449C9.34809 5.89756 10.2483 4.43904 11.3153 3.12107ZM22.7283 7.46449C23.516 7.11796 24.2769 6.71351 25.0047 6.25446C23.6105 4.84824 21.921 3.7777 20.0597 3.12107C21.1266 4.43904 22.0269 5.89756 22.7283 7.46449ZM24.4076 14.4062H28.7676C28.5701 12.0126 27.7303 9.80112 26.421 7.94448C25.4963 8.54715 24.5224 9.07079 23.5096 9.50984C24.0064 11.0668 24.3146 12.7078 24.4076 14.4062ZM23.5096 21.4902C24.5224 21.9292 25.4963 22.4528 26.421 23.0555C27.7303 21.1989 28.5701 18.9874 28.7676 16.5938H24.4076C24.3147 18.2921 24.0064 19.9332 23.5096 21.4902ZM20.0597 27.8789C21.921 27.2223 23.6105 26.1518 25.0047 24.7455C24.2769 24.2865 23.516 23.882 22.7283 23.5355C22.0269 25.1024 21.1267 26.561 20.0597 27.8789ZM8.64666 23.5355C7.859 23.882 7.09813 24.2865 6.37029 24.7455C7.76448 26.1518 9.45405 27.2223 11.3153 27.8789C10.2484 26.561 9.34809 25.1024 8.64666 23.5355ZM6.96737 16.5938H2.60741C2.8049 18.9874 3.64466 21.1989 4.95398 23.0555C5.87874 22.4528 6.85265 21.9292 7.86538 21.4902C7.36864 19.9332 7.06038 18.2922 6.96737 16.5938ZM4.95398 7.94448C3.64466 9.80112 2.8049 12.0126 2.60741 14.4062H6.97168L7.86035 9.51855L4.95398 7.94448Z" fill="white"/>
</svg>
