<?xml version="1.0" encoding="UTF-8"?>
<!-- Generated by Pixelmator Pro 3.6.16 -->
<svg width="700" height="700" viewBox="0 0 700 700" xmlns="http://www.w3.org/2000/svg">
    <g id="A-172x2Cmarketingx2CBusinessx2Cideax2Cpertinentx2CGear">
        <g id="g1">
            <path id="path1" fill="#0f4a5e" stroke="none" d="M 254.756256 414.767181 C 251.560913 410.059357 248.726563 405.137482 246.292175 400.070343 L 208.257813 404.326569 C 205.748444 404.600006 203.414063 403.021851 202.746872 400.590607 L 197.053116 379.878143 C 196.376556 377.420319 197.610931 374.837494 199.948425 373.820313 L 235.114075 358.504669 C 234.748444 352.810944 234.746887 347.118774 235.110931 341.493744 L 199.949997 326.181244 C 197.615631 325.164063 196.381256 322.58905 197.053116 320.132813 L 202.746872 299.268738 C 203.414063 296.825012 205.757813 295.226563 208.28125 295.528137 L 246.190613 299.918762 C 248.670319 294.84375 251.5 289.990601 254.759369 285.21875 L 232.014069 254.350006 C 230.510925 252.310944 230.723419 249.478119 232.517181 247.685944 L 236.478119 243.72345 L 196.065613 203.315613 C 158.167191 243.03125 137.356247 294.918762 137.356247 350 C 137.356247 405.079712 158.165619 456.965637 196.064072 496.6875 L 236.529694 456.221863 L 232.498444 452.153107 C 230.71875 450.357819 230.515625 447.531281 232.020294 445.498413 L 254.756256 414.767181 Z"/>
            <path id="path2" fill="#0f4a5e" stroke="none" d="M 188.814072 503.935974 C 148.981247 462.278137 127.104691 407.818756 127.104691 350.001587 C 127.104691 292.1828 148.981247 237.724976 188.815613 196.068726 L 160.47345 167.728088 C 62.817192 269.351563 62.839066 430.7453 160.542175 532.206238 L 188.814072 503.935974 Z"/>
            <path id="path3" fill="#0f4a5e" stroke="none" d="M 503.954712 511.162537 C 462.359375 551.003113 407.910919 572.889038 350.048462 572.889038 C 292.199982 572.889038 237.72345 551.014038 196.065613 511.1875 L 203.314072 503.939056 C 243.034393 541.832825 294.9375 562.639038 350.050018 562.639038 C 405.170288 562.639038 457.048401 541.823425 496.704651 503.918762 L 456.268738 463.521851 L 452.304688 467.485962 C 450.514069 469.276581 447.681244 469.490631 445.639099 467.987488 L 414.768738 445.234406 C 409.920319 448.545319 405.0672 451.34845 400.076569 453.717194 L 404.457794 491.72345 C 404.75 494.25 403.140625 496.607849 400.684357 497.264038 L 379.832794 502.806213 C 379.395294 502.923462 378.951538 502.979706 378.514038 502.979706 C 376.517212 502.979706 374.646851 501.806274 373.8172 499.900024 L 358.523407 464.793732 C 352.904694 465.229706 347.226563 465.229706 341.609375 464.793732 L 326.315613 499.900024 C 325.306244 502.21875 322.760925 503.454681 320.309387 502.8078 L 299.301544 497.264038 C 296.837494 496.612488 295.226563 494.253113 295.518768 491.721863 L 299.90155 453.715607 C 294.921875 451.350037 290.071869 448.548462 285.220306 445.232819 L 254.350006 467.985901 C 252.303131 469.493774 249.460938 469.273438 247.670319 467.465637 L 243.7453 463.506256 L 247.353119 459.896912 C 249.354706 457.895325 249.354706 454.65155 247.353119 452.648438 C 245.351563 450.648438 242.107819 450.648438 240.104706 452.648438 L 95.535934 597.217163 C 93.534378 599.217163 93.534378 602.462463 95.535934 604.465637 C 96.535934 605.464111 97.846878 605.96405 99.15625 605.965576 C 99.15625 605.965576 99.154694 605.965576 99.153122 605.965576 C 97.842194 605.965576 96.529694 605.465576 95.529694 604.465637 C 93.528122 602.46405 93.528122 599.21875 95.529694 597.217163 L 126.751572 565.996887 L 73.9375 565.996887 L 73.9375 626.059387 L 133.995316 626.059387 L 133.995316 573.2547 L 167.793747 539.454712 C 217.03125 586.823425 281.517181 612.853149 349.990631 612.853149 C 418.484344 612.853149 482.992188 586.807861 532.239075 539.414063 L 503.954712 511.162537 Z"/>
            <path id="path4" fill="#0f4a5e" stroke="none" d="M 95.53125 102.789063 C 93.529694 100.787476 93.529694 97.542175 95.53125 95.542175 C 96.532806 94.539063 97.845322 94.040649 99.157806 94.040649 C 97.846878 94.042175 96.537491 94.540649 95.537491 95.542175 C 93.535934 97.542175 93.535934 100.787476 95.537491 102.789063 L 240.106262 247.351563 C 241.106262 248.351563 242.417206 248.851563 243.729675 248.851563 C 245.029694 248.851563 246.329681 248.356262 247.326569 247.373444 L 242.878113 251.820313 L 265.199982 282.117188 C 266.524994 283.914063 266.532806 286.364044 265.21875 288.171875 C 260.681244 294.409363 256.990631 300.745331 253.934387 307.540619 C 253.018768 309.576569 250.884369 310.790649 248.670319 310.529694 L 211.47345 306.220306 L 208.106262 318.559387 L 242.553101 333.560944 C 244.584381 334.445313 245.8172 336.532806 245.609375 338.737518 C 244.915619 346.145325 244.915619 353.729675 245.610931 361.278107 C 245.8125 363.479706 244.581238 365.564056 242.553101 366.450012 L 208.114044 381.449982 L 211.46875 393.657837 L 248.832825 389.476593 C 251.0672 389.234344 253.195313 390.454681 254.095306 392.509369 C 257.0578 399.256226 260.798431 405.757813 265.217194 411.834381 C 266.532806 413.642181 266.523438 416.09845 265.190613 417.896881 L 242.868744 448.064026 L 251.831238 457.112488 L 282.109375 434.796844 C 283.907806 433.468781 286.357819 433.46405 288.164063 434.778107 C 294.556274 439.426575 300.860931 443.059387 307.439056 445.884369 C 309.520325 446.776581 310.767212 448.929688 310.507813 451.179688 L 306.204681 488.490631 L 318.670319 491.779724 L 333.693756 457.298431 C 334.592194 455.234375 336.735931 454 338.96875 454.253113 C 346.279694 455.081268 353.845306 455.081268 361.156281 454.253113 C 363.40155 454.001556 365.53125 455.234375 366.429718 457.298431 L 381.449982 491.771881 L 393.762482 488.496887 L 389.460938 451.178131 C 389.201538 448.929688 390.450012 446.776581 392.53125 445.882813 C 399.129669 443.049988 405.437531 439.414063 411.818756 434.77655 C 413.625 433.460938 416.076569 433.468781 417.873444 434.795319 L 448.168762 457.123413 L 457.237488 448.056274 L 434.790619 417.909393 C 433.434387 416.087494 433.439056 413.590637 434.800018 411.775024 C 438.957825 406.226532 442.639069 399.899994 446.053131 392.434357 C 446.973419 390.421875 449.081238 389.226593 451.282837 389.47345 L 488.6297 393.651581 L 491.889038 381.456238 L 457.420288 366.446869 C 455.359375 365.548431 454.123444 363.412537 454.373444 361.176575 C 455.209412 353.693787 455.209412 346.176544 454.373444 338.835938 C 454.1203 336.59845 455.356262 334.456238 457.420288 333.557831 L 491.893799 318.543732 L 488.623413 306.220306 L 451.298431 310.528137 C 449.073456 310.784363 446.950012 309.571899 446.034393 307.53125 C 442.806244 300.324982 439.131256 294.009369 434.798431 288.228119 C 433.440643 286.414063 433.432831 283.925018 434.782776 282.103119 L 457.228149 251.828125 L 453.040649 247.679688 C 452.906219 247.568756 452.762512 247.473419 452.635956 247.348419 C 452.521912 247.235931 452.4375 247.103119 452.335938 246.982819 L 448.185913 242.8703 L 417.873444 265.215637 C 416.076569 266.540619 413.625 266.548431 411.820313 265.235962 C 405.412476 260.578125 399.104675 256.945313 392.534363 254.131256 C 390.451569 253.239075 389.201538 251.085938 389.460938 248.832825 L 393.767151 211.482788 L 381.439056 208.118774 L 366.429718 242.565643 C 365.545319 244.595306 363.457825 245.826569 361.253113 245.621887 C 353.876556 244.928131 346.2453 244.928131 338.8703 245.621887 C 336.667175 245.828125 334.576569 244.596893 333.693756 242.565643 L 318.6828 208.110901 L 306.201538 211.493774 L 310.507813 248.834381 C 310.767212 251.085938 309.517181 253.240631 307.434357 254.132813 C 300.885925 256.9375 294.581238 260.570313 288.162506 265.237488 C 286.357819 266.551575 283.907806 266.543732 282.107819 265.217194 L 251.8125 242.885956 L 247.3703 247.324982 C 249.346863 245.321869 249.340637 242.098419 247.346863 240.104706 L 243.721863 236.478088 L 247.681274 232.518738 C 249.471893 230.728149 252.306244 230.515625 254.345337 232.018738 L 285.215607 254.773438 C 290.081238 251.449982 294.931244 248.648438 299.896881 246.290649 L 295.514069 208.28595 C 295.223419 205.767151 296.817169 203.415649 299.264069 202.751587 L 320.271881 197.0578 C 322.71875 196.396851 325.293762 197.626587 326.309357 199.957825 L 341.628113 235.1203 C 347.228119 234.757813 352.890625 234.757813 358.490601 235.1203 L 373.8125 199.957825 C 374.829681 197.625 377.40625 196.392151 379.859344 197.060913 L 400.712494 202.753113 C 403.154694 203.420288 404.742188 205.768738 404.453125 208.284363 L 400.071869 246.287476 C 405.049988 248.649994 409.903137 251.453125 414.764069 254.771881 L 445.634369 232.017212 C 447.667175 230.518738 450.485931 230.72345 452.28125 232.5 L 456.282806 236.462524 L 496.698425 196.087524 C 457.035919 158.179688 405.162476 137.364075 350.045288 137.364075 C 294.934357 137.364075 243.034393 158.170288 203.310944 196.065613 L 196.0625 188.818726 C 237.720337 148.990601 292.196869 127.114075 350.043762 127.114075 C 407.903137 127.114075 462.351563 148.998413 503.950012 188.842163 L 532.303162 160.515625 C 483.051575 113.150024 418.512482 87.114075 349.984375 87.114075 C 281.478119 87.114075 216.962494 113.131226 167.717194 160.474976 L 133.989059 126.75 L 133.989059 73.945313 L 73.9375 73.945313 L 73.9375 134.009399 L 126.754684 134.009399 L 95.53125 102.789063 Z M 310.860931 310.84375 C 321.342194 300.362488 335.264069 294.582825 350.048462 294.582825 C 364.840607 294.582825 378.728088 300.367188 389.154663 310.8703 C 399.596893 321.239075 405.376587 335.090607 405.404724 349.845306 C 405.431274 364.668762 399.65625 378.625 389.140594 389.143738 C 378.714081 399.565613 364.831268 405.306244 350.046875 405.306244 C 335.268768 405.306244 321.353119 399.570313 310.859375 389.157806 C 300.324982 378.628113 294.545319 364.668762 294.571869 349.845306 C 294.601563 335.092194 300.385925 321.240601 310.860931 310.84375 Z"/>
            <path id="path5" fill="#0f4a5e" stroke="none" d="M 350.048462 395.057831 C 362.096893 395.057831 373.404694 390.382813 381.896881 381.896881 C 390.467163 373.320282 395.178131 361.943756 395.15625 349.864044 C 395.132813 337.854706 390.429688 326.579681 381.907806 318.117188 C 373.395294 309.540619 362.087494 304.832825 350.048462 304.832825 C 338.001556 304.832825 326.653137 309.545288 318.095306 318.104706 C 309.554688 326.581238 304.846893 337.856232 304.823456 349.864044 C 304.801575 361.943756 309.514069 373.320282 318.09375 381.896881 C 326.640625 390.379669 337.993744 395.057831 350.048462 395.057831 Z"/>
            <path id="path6" fill="#0f4a5e" stroke="none" d="M 565.982788 126.881226 L 597.356262 95.539063 C 598.359375 94.539063 599.671875 94.040649 600.984375 94.040649 C 599.673401 94.042175 598.360901 94.540649 597.360962 95.539063 L 452.650024 240.101563 C 450.649963 242.101563 450.646881 245.346893 452.648438 247.348419 C 453.649994 248.351563 454.959381 248.851563 456.271881 248.851563 C 457.584381 248.851563 458.893738 248.351563 459.893738 247.353119 L 463.571899 243.679688 L 467.601563 247.671875 C 469.412537 249.465637 469.629639 252.318726 468.112488 254.365631 L 445.25 285.200012 C 448.412506 289.765625 451.237488 294.628113 453.800018 299.921875 L 491.856262 295.529694 C 494.381226 295.240631 496.7453 296.845306 497.396912 299.306244 L 502.932861 320.170319 C 503.584412 322.617188 502.349976 325.173431 500.028137 326.184357 L 464.924988 341.471893 C 465.365662 347.112488 465.362488 352.823456 464.921875 358.532806 L 500.028137 373.821869 C 502.353149 374.834381 503.587463 377.393768 502.932861 379.84375 L 497.393738 400.5578 C 496.739075 403.0047 494.396851 404.607819 491.875 404.326569 L 453.784363 400.065613 C 451.139069 405.478149 448.318756 410.342163 445.251556 414.792206 L 468.104675 445.485931 C 469.625 447.528137 469.417175 450.371887 467.617188 452.170319 L 463.518738 456.270325 L 459.893738 452.650024 C 457.892181 450.649963 454.646881 450.653137 452.646881 452.654694 C 450.645294 454.656281 450.648438 457.899994 452.648438 459.901581 L 597.359375 604.470337 C 598.360901 605.470337 599.670288 605.967163 600.978149 605.96875 C 600.978149 605.96875 600.978149 605.96875 600.974976 605.96875 C 599.664063 605.96875 598.354675 605.470337 597.354675 604.470337 L 565.981262 573.126587 L 565.981262 626.0625 L 626.051575 626.0625 L 626.051575 566 L 573.353149 566 L 539.484375 532.165649 C 637.131287 430.717194 637.154663 269.390625 539.554688 167.773438 L 573.349976 134.012512 L 626.051575 134.012512 L 626.051575 73.945313 L 565.981262 73.945313 L 565.981262 126.881226 Z M 511.201599 503.904663 L 503.948425 496.66095 C 582.037476 414.726532 582.03595 285.267181 503.946899 203.34375 L 511.198425 196.099976 C 593.27655 282.020294 593.27655 417.975006 511.201599 503.904663 Z"/>
            <path id="path7" fill="#0f4a5e" stroke="none" d="M 649.414063 55.857788 C 650.728149 55.857788 652.039063 55.357788 653.039063 54.354675 L 666.159363 41.226563 C 668.159363 39.224976 668.159363 35.979675 666.157837 33.978149 C 664.154663 31.978149 660.91095 31.979675 658.909363 33.981262 L 645.789063 47.109375 C 643.789063 49.110962 643.789063 52.356262 645.790649 54.357788 C 646.792175 55.357788 648.104675 55.857788 649.414063 55.857788 Z"/>
            <path id="path8" fill="#0f4a5e" stroke="none" d="M 663.864014 85.764038 C 664.478088 88.051575 666.548462 89.560913 668.810913 89.560913 C 669.248413 89.560913 669.695313 89.503113 670.142151 89.384399 L 688.089111 84.565613 C 690.821899 83.832825 692.443726 81.020325 691.707825 78.28595 C 690.974976 75.554688 688.168762 73.9328 685.429688 74.665649 L 667.482788 79.484375 C 664.75 80.21875 663.128113 83.029663 663.864014 85.764038 Z"/>
            <path id="path9" fill="#0f4a5e" stroke="none" d="M 686.760925 133.465637 C 689.023438 133.465637 691.095276 131.956238 691.709351 129.667175 C 692.4422 126.9328 690.820313 124.121887 688.085938 123.389038 L 670.140625 118.578125 C 667.404724 117.849976 664.595337 119.467163 663.862488 122.201538 C 663.1297 124.935913 664.751587 127.7453 667.485962 128.479675 L 685.431213 133.290649 C 685.876587 133.409363 686.323425 133.465637 686.760925 133.465637 Z"/>
            <path id="path10" fill="#0f4a5e" stroke="none" d="M 666.140625 166.710938 L 653.020325 153.72345 C 651.010925 151.732788 647.765625 151.748413 645.773438 153.762512 C 643.78125 155.773438 643.798462 159.018738 645.809387 161.009399 L 658.929688 173.996887 C 659.928101 174.985962 661.232788 175.479675 662.53595 175.479675 C 663.854675 175.479675 665.174988 174.971863 666.176575 173.959351 C 668.170288 171.946899 668.15155 168.701538 666.140625 166.710938 Z"/>
            <path id="path11" fill="#0f4a5e" stroke="none" d="M 625.328125 193.373413 L 620.518738 175.576538 C 619.78125 172.84375 616.970276 171.226563 614.234375 171.965637 C 611.503113 172.703125 609.885925 175.517151 610.623474 178.25 L 615.432861 196.046875 C 616.051575 198.331238 618.118774 199.835938 620.378113 199.835938 C 620.818787 199.835938 621.270325 199.778137 621.717163 199.657837 C 624.450012 198.920349 626.0672 196.106262 625.328125 193.373413 Z"/>
            <path id="path12" fill="#0f4a5e" stroke="none" d="M 503.957825 84.565613 L 521.903137 89.384399 C 522.346863 89.503113 522.795288 89.560913 523.235962 89.560913 C 525.496887 89.560913 527.5672 88.051575 528.1828 85.764038 C 528.915649 83.029663 527.296875 80.21875 524.5625 79.484375 L 506.617188 74.665649 C 503.878113 73.928101 501.071899 75.553101 500.337524 78.28595 C 499.604675 81.021851 501.224976 83.832825 503.957825 84.565613 Z"/>
            <path id="path13" fill="#0f4a5e" stroke="none" d="M 538.985901 54.334351 C 539.987488 55.34845 541.307861 55.857788 542.6297 55.857788 C 543.931274 55.857788 545.234375 55.364075 546.234375 54.378113 C 548.246887 52.387512 548.264099 49.143738 546.275024 47.1297 L 533.295288 34.001587 C 531.304688 31.987488 528.060974 31.970337 526.048401 33.959351 C 524.034363 35.948425 524.015625 39.193726 526.006287 41.207825 L 538.985901 54.334351 Z"/>
            <path id="path14" fill="#0f4a5e" stroke="none" d="M 571.525024 32.512512 C 572.140625 34.801575 574.210938 36.3125 576.47345 36.3125 C 576.91095 36.3125 577.357788 36.2547 577.803162 36.135925 C 580.53595 35.403137 582.159363 32.592163 581.426575 29.857788 L 576.614075 11.912476 C 575.881226 9.178101 573.073425 7.556274 570.335938 8.289063 C 567.601563 9.023438 565.981262 11.832825 566.71405 14.5672 L 571.525024 32.512512 Z"/>
            <path id="path15" fill="#0f4a5e" stroke="none" d="M 614.243774 36.134399 C 614.6875 36.253113 615.132813 36.310913 615.573425 36.310913 C 617.835938 36.310913 619.90625 34.799988 620.521851 32.510925 L 625.331238 14.565613 C 626.064087 11.831238 624.4422 9.020325 621.707825 8.287476 C 618.976563 7.5578 616.165649 9.176575 615.429688 11.91095 L 610.6203 29.856262 C 609.887512 32.592163 611.509399 35.403137 614.243774 36.134399 Z"/>
            <path id="path16" fill="#0f4a5e" stroke="none" d="M 653.039063 645.654663 C 651.039063 643.651611 647.793762 643.651611 645.792175 645.651611 C 643.789063 647.651611 643.789063 650.895325 645.789063 652.898438 L 658.909363 666.02655 C 659.910889 667.029663 661.220337 667.529663 662.534363 667.529663 C 663.845276 667.529663 665.15625 667.029663 666.154663 666.029663 C 668.157837 664.029663 668.157837 660.78595 666.157837 658.782837 L 653.039063 645.654663 Z"/>
            <path id="path17" fill="#0f4a5e" stroke="none" d="M 620.521851 667.496887 C 619.78595 664.762512 616.982788 663.142212 614.243774 663.873413 C 611.509399 664.607788 609.887512 667.417175 610.6203 670.15155 L 615.429688 688.090637 C 616.046875 690.379639 618.115601 691.890625 620.378113 691.890625 C 620.815613 691.890625 621.262512 691.832825 621.707825 691.71405 C 624.4422 690.981262 626.064087 688.170288 625.331238 685.4375 L 620.521851 667.496887 Z"/>
            <path id="path18" fill="#0f4a5e" stroke="none" d="M 577.803162 663.873413 C 575.0672 663.142212 572.260925 664.762512 571.525024 667.496887 L 566.71405 685.435913 C 565.981262 688.167175 567.601563 690.979675 570.335938 691.712524 C 570.78125 691.831238 571.226563 691.889038 571.667175 691.889038 C 573.928101 691.889038 576 690.378174 576.614075 688.089111 L 581.426575 670.150024 C 582.159363 667.417175 580.53595 664.607788 577.803162 663.873413 Z"/>
            <path id="path19" fill="#0f4a5e" stroke="none" d="M 538.985901 645.671875 L 526.006287 658.799988 C 524.017212 660.814026 524.034363 664.057861 526.048401 666.048462 C 527.046875 667.03595 528.350037 667.528076 529.65155 667.528076 C 530.97345 667.528076 532.293762 667.021912 533.295288 666.006226 L 546.275024 652.878174 C 548.262512 650.864075 548.246887 647.6203 546.234375 645.6297 C 544.220276 643.643738 540.976563 643.657837 538.985901 645.671875 Z"/>
            <path id="path20" fill="#0f4a5e" stroke="none" d="M 528.1828 614.104736 C 527.450012 611.370361 524.635925 609.746887 521.904724 610.481262 L 503.960938 615.292175 C 501.226563 616.02655 499.604675 618.835938 500.337524 621.570313 C 500.953125 623.859375 503.023438 625.3703 505.284363 625.3703 C 505.72345 625.3703 506.170349 625.3125 506.614075 625.195313 L 524.560913 620.382813 C 527.293701 619.648438 528.915649 616.837524 528.1828 614.104736 Z"/>
            <path id="path21" fill="#0f4a5e" stroke="none" d="M 621.717163 500.34375 C 618.984375 499.606232 616.171875 501.221893 615.432861 503.953125 L 610.623474 521.751526 C 609.884338 524.484375 611.503113 527.298462 614.234375 528.035889 C 614.6828 528.15625 615.132813 528.214111 615.573425 528.214111 C 617.832825 528.214111 619.90155 526.709351 620.518738 524.424988 L 625.328125 506.626556 C 626.0672 503.895325 624.450012 501.081238 621.717163 500.34375 Z"/>
            <path id="path22" fill="#0f4a5e" stroke="none" d="M 658.91095 525.884399 L 645.790649 539.012451 C 643.790649 541.014038 643.790649 544.257813 645.793762 546.259338 C 646.793762 547.260986 648.104675 547.759399 649.414063 547.759399 C 650.728149 547.759399 652.039063 547.257813 653.039063 546.256226 L 666.159363 533.128113 C 668.159363 531.126526 668.159363 527.882813 666.15625 525.881226 C 664.157837 523.881226 660.91095 523.882813 658.91095 525.884399 Z"/>
            <path id="path23" fill="#0f4a5e" stroke="none" d="M 685.4328 566.717163 L 667.487488 571.529663 C 664.753113 572.262451 663.131226 575.073425 663.864014 577.806213 C 664.479675 580.096863 666.548462 581.606262 668.8125 581.606262 C 669.25 581.606262 669.696838 581.549988 670.142151 581.431274 L 688.087524 576.6203 C 690.821899 575.885925 692.443726 573.075012 691.710938 570.342224 C 690.976563 567.607849 688.168762 565.987488 685.4328 566.717163 Z"/>
            <path id="path24" fill="#0f4a5e" stroke="none" d="M 688.085938 615.292175 L 670.140625 610.481262 C 667.404724 609.75 664.596863 611.370361 663.862488 614.104736 C 663.1297 616.837524 664.751587 619.648438 667.485962 620.381226 L 685.431213 625.193726 C 685.875 625.310913 686.321899 625.368713 686.760925 625.368713 C 689.023438 625.368713 691.095276 623.857849 691.709351 621.568726 C 692.4422 618.835938 690.820313 616.02655 688.085938 615.292175 Z"/>
            <path id="path25" fill="#0f4a5e" stroke="none" d="M 47.106247 645.651611 L 33.970314 658.779663 C 31.96875 660.779663 31.96875 664.025024 33.96875 666.028137 C 34.970314 667.029663 36.28125 667.529663 37.59375 667.529663 C 38.904686 667.529663 40.215622 667.029663 41.215622 666.029663 L 54.35157 652.90155 C 56.353127 650.90155 56.354691 647.65625 54.353127 645.653076 C 52.353119 643.651611 49.107811 643.653076 47.106247 645.651611 Z"/>
            <path id="path26" fill="#0f4a5e" stroke="none" d="M 36.125 614.103149 C 35.392189 611.368774 32.581253 609.746887 29.846878 610.481262 L 11.914063 615.292175 C 9.181248 616.02655 7.559376 618.837524 8.293747 621.571899 C 8.907814 623.860962 10.978127 625.3703 13.240623 625.3703 C 13.679688 625.3703 14.126564 625.3125 14.573441 625.195313 L 32.506248 620.382813 C 35.235939 619.648438 36.857811 616.835938 36.125 614.103149 Z"/>
            <path id="path27" fill="#0f4a5e" stroke="none" d="M 8.292187 570.340637 C 7.557816 573.075012 9.179688 575.885925 11.912502 576.6203 L 29.845314 581.431274 C 30.290627 581.549988 30.737503 581.606262 31.176559 581.606262 C 33.439064 581.606262 35.509377 580.096863 36.123436 577.8078 C 36.856255 575.075012 35.235939 572.262451 32.50312 571.529663 L 14.570313 566.717163 C 11.831249 565.987488 9.025002 567.609375 8.292187 570.340637 Z"/>
            <path id="path28" fill="#0f4a5e" stroke="none" d="M 41.215622 525.881226 C 39.215622 523.879639 35.970314 523.881226 33.96875 525.884399 C 31.96875 527.884399 31.96875 531.128113 33.970314 533.131287 L 47.106247 546.259338 C 48.106247 547.260986 49.417183 547.759399 50.728134 547.759399 C 52.040627 547.759399 53.351555 547.259399 54.353127 546.256226 C 56.353127 544.2547 56.353127 541.012451 54.35157 539.009399 L 41.215622 525.881226 Z"/>
            <path id="path29" fill="#0f4a5e" stroke="none" d="M 74.660934 506.631226 L 79.484375 524.429688 C 80.103119 526.710938 82.170303 528.214111 84.428116 528.214111 C 84.871872 528.214111 85.323441 528.15625 85.771866 528.034363 C 88.503128 527.295288 90.117188 524.479675 89.378128 521.748413 L 84.554688 503.950012 C 83.814056 501.220337 81.004684 499.601563 78.268753 500.34375 C 75.535942 501.082794 73.921875 503.898438 74.660934 506.631226 Z"/>
            <path id="path30" fill="#0f4a5e" stroke="none" d="M 196.051575 615.295288 L 178.248428 610.484375 C 175.520294 609.751587 172.703125 611.362488 171.964081 614.095337 C 171.225006 616.828125 172.842194 619.640625 175.574997 620.3797 L 193.378113 625.190674 C 193.826553 625.310913 194.274994 625.368713 194.71875 625.368713 C 196.976563 625.368713 199.045319 623.864075 199.662491 621.579712 C 200.399994 618.848389 198.784378 616.03595 196.051575 615.295288 Z"/>
            <path id="path31" fill="#0f4a5e" stroke="none" d="M 160.993744 645.653076 C 158.993744 643.651611 155.748444 643.653076 153.745316 645.651611 C 151.743744 647.653076 151.743744 650.896851 153.743744 652.899963 L 166.867188 666.028137 C 167.868759 667.029663 169.179672 667.529663 170.492203 667.529663 C 171.803116 667.529663 173.114059 667.029663 174.114059 666.029663 C 176.115631 664.028137 176.117188 660.784363 174.115631 658.78125 L 160.993744 645.653076 Z"/>
            <path id="path32" fill="#0f4a5e" stroke="none" d="M 128.475006 667.496887 C 127.742188 664.762512 124.934372 663.140625 122.196884 663.873413 C 119.462509 664.607788 117.840622 667.418762 118.574997 670.15155 L 123.385941 688.090637 C 124 690.379639 126.070313 691.890625 128.332825 691.890625 C 128.771881 691.890625 129.21875 691.832825 129.664063 691.71405 C 132.398438 690.981262 134.020309 688.168762 133.285934 685.4375 L 128.475006 667.496887 Z"/>
            <path id="path33" fill="#0f4a5e" stroke="none" d="M 85.760941 663.875 C 83.029694 663.139038 80.215622 664.759399 79.481247 667.492188 L 74.65937 685.431274 C 73.923431 688.164063 75.543747 690.976563 78.276566 691.710938 C 78.721878 691.831238 79.170303 691.889038 79.610931 691.889038 C 81.871872 691.889038 83.942184 690.379639 84.5578 688.09375 L 89.381256 670.154663 C 90.114059 667.420288 88.493759 664.610962 85.760941 663.875 Z"/>
            <path id="path34" fill="#0f4a5e" stroke="none" d="M 47.106247 54.357788 C 48.107819 55.357788 49.417183 55.857788 50.728134 55.857788 C 52.040627 55.857788 53.351555 55.357788 54.353127 54.354675 C 56.353127 52.353149 56.353127 49.109375 54.35157 47.107788 L 41.215622 33.978149 C 39.214066 31.978149 35.970314 31.978149 33.96875 33.981262 C 31.96875 35.982788 31.96875 39.226563 33.970314 41.228149 L 47.106247 54.357788 Z"/>
            <path id="path35" fill="#0f4a5e" stroke="none" d="M 79.481247 32.515625 C 80.096878 34.804688 82.165619 36.3125 84.428116 36.3125 C 84.868759 36.3125 85.315628 36.2547 85.760941 36.134399 C 88.495316 35.40155 90.115631 32.58905 89.3797 29.856262 L 84.556244 11.91095 C 83.820313 9.178101 81.009369 7.549988 78.276566 8.292175 C 75.542191 9.025024 73.921875 11.837524 74.657806 14.571899 L 79.481247 32.515625 Z"/>
            <path id="path36" fill="#0f4a5e" stroke="none" d="M 122.198441 36.134399 C 122.643738 36.253113 123.089066 36.310913 123.528122 36.310913 C 125.790619 36.310913 127.860947 34.799988 128.475006 32.510925 L 133.285934 14.565613 C 134.020309 11.831238 132.396881 9.021851 129.664063 8.287476 C 126.925003 7.551575 124.1203 9.176575 123.387497 11.91095 L 118.576569 29.856262 C 117.842178 32.592163 119.464066 35.40155 122.198441 36.134399 Z"/>
            <path id="path37" fill="#0f4a5e" stroke="none" d="M 157.368759 55.857788 C 158.681244 55.857788 159.993744 55.357788 160.993744 54.356262 L 174.117188 41.226563 C 176.117188 39.224976 176.117188 35.981262 174.115631 33.978149 C 172.112488 31.978149 168.868759 31.979675 166.867188 33.979675 L 153.743744 47.109375 C 151.743744 49.110962 151.743744 52.354675 153.743744 54.356262 C 154.746872 55.357788 156.057816 55.857788 157.368759 55.857788 Z"/>
            <path id="path38" fill="#0f4a5e" stroke="none" d="M 171.964081 85.775024 C 172.582825 88.0578 174.649994 89.560913 176.907806 89.560913 C 177.349991 89.560913 177.801559 89.503113 178.25 89.381226 L 196.053131 84.5625 C 198.78595 83.823425 200.399994 81.009399 199.66095 78.27655 C 198.920319 75.545288 196.110947 73.926575 193.374985 74.668762 L 175.571869 79.487488 C 172.840622 80.228149 171.225006 83.040649 171.964081 85.775024 Z"/>
            <path id="path39" fill="#0f4a5e" stroke="none" d="M 78.267197 199.65625 C 78.717178 199.779663 79.167191 199.835938 79.610931 199.835938 C 81.867188 199.835938 83.935944 198.332825 84.554688 196.051575 L 89.378128 178.253113 C 90.118759 175.521851 88.503128 172.706238 85.771866 171.967224 C 83.032806 171.220276 80.225006 172.840637 79.485947 175.571899 L 74.662491 193.3703 C 73.921875 196.101563 75.535942 198.917175 78.267197 199.65625 Z"/>
            <path id="path40" fill="#0f4a5e" stroke="none" d="M 47.126564 153.721863 L 33.990631 166.709351 C 31.976563 168.700012 31.959373 171.943787 33.948441 173.956238 C 34.951561 174.971863 36.271873 175.479675 37.59375 175.479675 C 38.895317 175.479675 40.198441 174.985962 41.196877 173.998413 L 54.332817 161.012512 C 56.34687 159.023438 56.364059 155.778137 54.373444 153.765625 C 52.384377 151.751587 49.140625 151.732788 47.126564 153.721863 Z"/>
            <path id="path41" fill="#0f4a5e" stroke="none" d="M 36.125 122.201538 C 35.392189 119.467163 32.581253 117.845337 29.846878 118.579712 L 11.914063 123.390625 C 9.179688 124.125 7.557816 126.934387 8.292187 129.668762 C 8.90625 131.957825 10.976566 133.467163 13.239063 133.467163 C 13.678127 133.467163 14.125 133.409363 14.570313 133.290649 L 32.504692 128.479675 C 35.235939 127.746887 36.857811 124.935913 36.125 122.201538 Z"/>
            <path id="path42" fill="#0f4a5e" stroke="none" d="M 11.912502 84.565613 L 29.845314 89.384399 C 30.290627 89.503113 30.739059 89.560913 31.178123 89.560913 C 33.439064 89.560913 35.509377 88.051575 36.125 85.764038 C 36.859375 83.03125 35.239067 80.220337 32.504692 79.484375 L 14.571877 74.665649 C 11.835938 73.9328 9.028126 75.553101 8.292187 78.28595 C 7.557816 81.020325 9.179688 83.831238 11.912502 84.565613 Z"/>
        </g>
    </g>
    <g id="Layer1"/>
</svg>
